<?xml version="1.0" standalone="no"?>
<!DOCTYPE svg PUBLIC "-//W3C//DTD SVG 20010904//EN"
 "http://www.w3.org/TR/2001/REC-SVG-20010904/DTD/svg10.dtd">
<svg version="1.0" xmlns="http://www.w3.org/2000/svg"
 width="1080.000000pt" height="1080.000000pt" viewBox="0 0 1080.000000 1080.000000"
 preserveAspectRatio="xMidYMid meet">

<g transform="translate(0.000000,1080.000000) scale(0.100000,-0.100000)"
fill="#000000" stroke="none">
<path d="M4998 9210 c-1310 -147 -2437 -929 -3021 -2096 -182 -363 -295 -719
-364 -1139 -27 -166 -28 -180 -28 -575 0 -395 1 -409 28 -575 69 -420 182
-776 364 -1139 324 -647 833 -1198 1451 -1568 468 -282 948 -448 1498 -518
223 -29 725 -29 948 0 740 95 1398 380 1973 854 139 115 384 360 499 499 474
575 759 1233 854 1973 16 126 20 214 20 474 0 345 -12 487 -65 759 -151 774
-581 1533 -1171 2066 -575 519 -1237 837 -2004 961 -154 25 -189 27 -535 30
-203 1 -405 -2 -447 -6z m-368 -2685 c279 -37 440 -163 480 -375 43 -228 -67
-448 -275 -549 -39 -19 -71 -35 -73 -36 -2 -2 15 -20 36 -42 32 -30 462 -654
462 -669 0 -2 -71 -4 -159 -4 -195 0 -194 -1 -294 157 -237 370 -303 467 -331
484 -25 16 -47 19 -116 17 l-85 -3 -5 -325 -5 -325 -150 0 -150 0 -3 390 c-2
215 0 594 4 843 l6 452 277 0 c182 0 312 -5 381 -15z m1635 -10 c258 -45 462
-194 574 -418 28 -56 58 -129 67 -162 21 -79 30 -331 15 -420 -48 -276 -235
-509 -485 -606 -141 -54 -190 -59 -607 -59 l-379 0 0 840 0 840 364 0 c280 0
383 -3 451 -15z m-4077 -1217 c3 -60 0 -71 -21 -91 -44 -45 -182 -43 -219 3
-10 12 -20 37 -24 56 l-6 35 -87 -3 -86 -3 -3 32 -3 32 123 4 c68 2 168 3 223
2 l100 0 3 -67z m24 -309 c3 -24 7 -61 7 -81 1 -34 -2 -38 -23 -38 -25 0 -36
16 -36 56 0 32 -15 37 -76 27 -46 -8 -49 -11 -46 -37 4 -33 -13 -56 -39 -56
-13 0 -19 7 -19 23 0 43 -13 51 -75 43 -32 -3 -62 -9 -67 -13 -6 -3 -8 -22 -4
-41 6 -39 -7 -62 -34 -62 -14 0 -20 10 -24 40 -19 129 -19 119 6 124 13 3 106
17 207 31 102 14 187 28 190 30 13 14 27 -6 33 -46z m6396 -171 c7 -7 9 -27 5
-55 -5 -34 -3 -43 9 -43 8 0 36 -3 62 -6 39 -6 46 -4 46 10 0 34 18 54 45 49
23 -5 24 -9 19 -43 l-6 -37 58 -11 c81 -17 82 -17 91 31 7 33 13 43 31 45 13
2 25 -3 28 -13 6 -14 -12 -130 -22 -146 -2 -3 -49 3 -106 13 -57 10 -151 27
-209 37 -59 10 -111 21 -117 24 -6 4 -4 35 6 82 11 57 19 75 31 75 10 0 22 -5
29 -12z m-6347 -120 c28 -105 11 -138 -86 -163 -73 -19 -83 -19 -118 0 -33 17
-37 15 -131 -47 -61 -40 -70 -40 -81 2 -5 23 2 29 71 68 42 24 74 46 71 49 -3
3 -38 -2 -77 -11 -39 -9 -75 -14 -79 -11 -17 10 -19 54 -2 59 15 4 67 17 271
65 110 26 123 28 137 30 7 0 17 -18 24 -41z m6464 -228 c99 -30 185 -58 192
-62 8 -7 9 -17 1 -39 l-10 -29 -117 6 c-64 3 -121 7 -128 9 -7 2 -15 1 -17 -4
-3 -4 49 -23 114 -42 102 -29 120 -37 120 -54 0 -42 -11 -44 -115 -13 -55 16
-147 43 -205 60 -58 17 -109 34 -113 38 -5 4 -2 23 6 43 l15 35 84 -4 c45 -3
100 -6 121 -8 58 -6 40 2 -75 35 -56 17 -106 33 -109 37 -4 4 -3 18 2 31 11
28 -2 30 234 -39z m-6390 -103 c18 -15 28 -36 32 -64 6 -48 -4 -66 -51 -90
-27 -14 -31 -14 -43 3 -19 26 -16 39 12 52 27 13 32 33 12 50 -10 9 -48 0
-148 -35 -74 -25 -140 -51 -148 -59 -23 -21 5 -47 41 -40 24 5 30 2 39 -21 11
-30 11 -31 -27 -42 -48 -13 -93 5 -110 44 -36 87 -11 113 167 176 155 54 187
58 224 26z m6267 -283 c100 -42 184 -77 186 -79 7 -6 -19 -55 -30 -55 -15 0
-379 149 -392 161 -5 4 -6 20 -2 34 9 34 6 35 238 -61z m-6121 -50 c32 -71 32
-94 -1 -94 -13 0 -26 12 -37 35 -9 19 -20 35 -25 35 -4 0 -28 -10 -53 -22 -45
-22 -46 -22 -39 -64 5 -36 3 -42 -15 -47 -16 -4 -25 2 -36 24 -9 16 -20 29
-25 29 -19 0 -120 -54 -120 -65 1 -5 7 -21 15 -35 20 -35 18 -49 -7 -59 -21
-8 -26 -3 -55 53 -18 33 -32 67 -33 73 0 7 62 42 138 78 75 36 162 79 192 95
30 16 59 30 63 30 5 0 22 -30 38 -66z m5957 -218 l163 -83 20 39 c22 42 26 44
55 24 19 -14 18 -16 -14 -81 -26 -53 -36 -66 -50 -60 -34 13 -382 196 -382
201 0 15 22 44 33 44 7 -1 85 -38 175 -84z m-5834 -24 l15 -28 -188 -107
c-103 -59 -192 -107 -198 -107 -5 0 -15 11 -21 24 -8 19 -8 27 2 35 17 15 359
210 368 211 4 0 14 -13 22 -28z m5730 -207 c97 -64 176 -121 176 -128 0 -7 -6
-21 -14 -32 -12 -17 -18 -16 -133 23 -65 23 -126 42 -134 42 -8 0 15 -19 51
-41 131 -83 160 -102 160 -108 -1 -11 -27 -41 -36 -41 -4 0 -44 23 -88 52
-214 136 -276 179 -276 191 0 6 9 23 19 36 l18 24 119 -42 c65 -23 115 -39
112 -35 -4 3 -50 34 -102 68 -94 60 -96 62 -80 84 8 12 19 22 24 22 5 0 88
-52 184 -115z m-5624 36 c5 -11 10 -24 10 -29 0 -5 -49 -53 -110 -108 -60 -54
-105 -100 -100 -102 5 -2 68 27 140 65 127 66 131 67 146 48 8 -10 13 -24 11
-30 -5 -18 -390 -205 -401 -195 -6 4 -19 22 -29 38 l-17 31 162 150 c89 83
165 151 170 151 4 0 12 -9 18 -19z m5312 -273 c86 -62 213 -170 226 -195 18
-34 6 -77 -30 -108 -54 -45 -79 -35 -242 95 -85 69 -108 92 -118 124 -12 38
-12 39 30 77 23 22 51 39 64 39 13 0 44 -15 70 -32z m-5066 -54 c37 -44 45
-60 38 -72 -17 -27 -33 -25 -63 9 l-29 32 -29 -21 c-15 -11 -36 -29 -47 -40
-18 -21 -18 -22 3 -48 20 -26 20 -28 4 -46 -16 -18 -17 -18 -44 8 l-28 27 -46
-38 c-26 -21 -49 -44 -52 -51 -3 -8 7 -28 21 -45 25 -30 26 -33 10 -50 -9 -11
-20 -19 -23 -19 -11 0 -102 112 -99 121 2 4 64 60 138 125 74 64 145 128 157
141 12 12 26 23 31 23 5 0 31 -25 58 -56z m4622 -306 c18 -18 14 -36 -13 -60
-33 -28 -32 -37 9 -84 l34 -39 32 19 c29 17 33 17 48 2 15 -14 14 -18 -11 -44
l-26 -27 64 -75 c36 -41 65 -78 65 -82 0 -4 -10 -14 -22 -23 -26 -18 -17 -26
-163 145 -50 58 -102 118 -117 135 -16 16 -28 35 -28 40 0 10 99 104 111 105
3 0 10 -5 17 -12z m-4241 -74 c70 -57 81 -79 51 -97 -13 -9 -22 -7 -37 7 -24
21 -20 25 -136 -119 -133 -164 -128 -159 -153 -146 -12 6 -22 18 -22 25 0 12
106 147 191 245 42 47 48 66 24 75 -18 7 -20 37 -3 54 7 7 13 12 14 12 1 0 33
-25 71 -56z m238 -185 c4 -6 -14 -42 -39 -80 -25 -38 -46 -73 -46 -79 0 -5 9
-14 20 -20 17 -9 25 -2 70 65 48 71 51 74 75 63 14 -6 25 -18 25 -27 0 -17
-225 -354 -240 -359 -13 -5 -50 17 -50 29 0 5 23 43 50 84 28 41 50 79 50 84
0 10 -39 36 -45 29 -1 -2 -24 -37 -50 -78 -27 -41 -50 -77 -52 -79 -6 -8 -53
19 -53 31 0 13 59 104 177 276 56 80 66 91 83 82 10 -6 22 -15 25 -21z m3769
10 c15 -12 50 -55 78 -98 28 -42 64 -92 80 -112 41 -51 47 -98 17 -132 -13
-15 -38 -31 -56 -36 -48 -14 -84 12 -153 109 -33 47 -74 104 -91 128 -42 58
-38 107 10 139 42 29 80 29 115 2z m-3451 -200 c75 -38 70 -33 62 -58 -8 -25
-41 -27 -69 -6 -29 22 -33 20 -62 -37 -25 -50 -25 -52 -8 -64 42 -29 45 -34
33 -55 -7 -14 -17 -19 -30 -15 -10 3 -27 9 -37 12 -13 4 -24 -7 -45 -45 -15
-28 -27 -57 -27 -64 0 -7 16 -21 35 -30 19 -9 35 -21 35 -26 0 -21 -13 -41
-27 -41 -12 0 -108 48 -131 66 -6 4 193 393 201 394 4 0 36 -14 70 -31z m2984
-202 c19 -92 43 -177 58 -206 14 -28 25 -54 25 -59 0 -9 -50 -35 -56 -29 -2 1
-15 30 -30 62 -14 34 -67 111 -120 176 -52 64 -94 121 -94 127 0 14 37 35 50
27 5 -3 30 -35 57 -71 26 -36 49 -61 51 -55 2 5 -4 36 -12 69 -9 33 -16 69
-16 80 0 21 27 44 45 38 6 -1 24 -73 42 -159z m-2511 -3 c57 -19 84 -45 84
-84 0 -39 -19 -91 -44 -118 -17 -19 -20 -34 -18 -75 4 -62 -28 -134 -69 -156
-24 -13 -34 -13 -88 4 -34 10 -63 21 -65 24 -3 5 104 345 127 404 8 21 11 21
73 1z m2158 -19 c35 -38 61 -135 47 -176 -6 -17 -11 -36 -11 -40 0 -4 25 -38
56 -74 59 -69 63 -89 20 -97 -23 -5 -33 3 -77 64 -28 39 -52 68 -55 66 -2 -3
7 -38 21 -78 14 -41 22 -77 17 -82 -4 -4 -18 -9 -31 -10 -25 -3 -19 -17 -146
350 -22 62 -19 69 28 85 65 23 104 21 131 -8z m-1787 -86 c12 -4 30 -20 39
-34 18 -28 17 -45 -25 -245 -25 -122 -28 -128 -62 -146 -63 -32 -139 12 -139
82 0 18 13 97 30 176 25 121 34 146 55 166 26 22 44 22 102 1z m1429 -40 c50
-118 134 -340 134 -355 0 -11 -9 -14 -32 -12 -29 3 -34 8 -47 51 -15 47 -30
57 -60 38 -11 -7 -14 -25 -12 -64 2 -52 1 -55 -25 -61 -14 -4 -29 -5 -32 -1
-3 3 -9 58 -14 123 -4 64 -13 162 -18 216 -6 55 -8 101 -6 104 7 6 69 20 80
18 5 -1 20 -27 32 -57z m-1149 -14 c3 -9 -2 -86 -12 -173 -20 -184 -18 -217
10 -217 23 0 24 4 51 238 9 81 21 150 26 153 4 3 18 2 29 -1 24 -8 24 -15 -3
-285 -10 -104 -14 -117 -39 -142 -57 -57 -159 -18 -159 60 0 41 30 350 36 370
5 17 53 15 61 -3z m827 -7 c29 -26 37 -60 56 -235 18 -162 6 -185 -106 -198
l-61 -7 -11 74 c-21 128 -44 349 -38 363 4 13 33 19 108 23 16 1 38 -7 52 -20z
m-346 -10 c9 -9 12 -73 12 -225 l0 -213 -34 0 -33 0 -23 88 c-47 184 -44 181
-50 37 l-5 -130 -25 0 c-25 0 -25 1 -31 105 -4 58 -7 158 -8 223 l-1 118 42
-3 42 -3 28 -109 c16 -60 31 -112 34 -115 4 -3 4 47 0 111 -6 117 -4 125 30
127 5 1 15 -4 22 -11z"/>
<path d="M4276 6014 c-4 -170 -3 -281 3 -287 5 -5 70 -7 153 -5 115 4 154 9
198 26 74 29 123 71 154 134 22 43 26 66 26 134 0 127 -42 200 -142 245 -47
21 -72 24 -219 27 l-166 4 -7 -278z"/>
<path d="M5767 6028 c-4 -145 -7 -415 -7 -600 l0 -338 199 0 c109 0 222 5 252
10 188 36 335 187 385 396 22 92 22 294 0 388 -50 209 -188 350 -384 392 -44
9 -131 14 -253 14 l-186 0 -6 -262z"/>
<path d="M1985 5290 c-3 -5 -1 -19 5 -30 8 -16 21 -20 60 -20 64 0 80 7 80 36
0 23 -3 24 -69 24 -39 0 -73 -4 -76 -10z"/>
<path d="M2140 4653 c-63 -16 -75 -25 -66 -49 5 -14 15 -16 52 -10 58 7 84 22
84 46 0 27 -9 29 -70 13z"/>
<path d="M7923 3294 c-7 -18 -14 -11 102 -106 125 -103 136 -110 152 -96 22
18 15 35 -34 75 -27 21 -76 62 -111 91 -63 53 -98 65 -109 36z"/>
<path d="M7262 2688 c-13 -17 -6 -30 61 -120 31 -42 57 -81 57 -86 0 -18 59
-65 74 -59 33 13 21 36 -131 245 -25 34 -44 40 -61 20z"/>
<path d="M4326 2220 c-17 -53 -15 -70 10 -70 17 0 44 58 44 95 0 18 -5 25 -19
25 -14 0 -23 -14 -35 -50z"/>
<path d="M4281 2077 c-29 -75 -35 -109 -21 -117 22 -14 46 6 58 48 16 53 15
79 -4 86 -23 9 -24 8 -33 -17z"/>
<path d="M6434 2265 c-4 -9 2 -39 12 -68 15 -39 24 -52 39 -52 28 0 30 35 6
90 -20 45 -46 59 -57 30z"/>
<path d="M4672 2168 c-7 -7 -12 -23 -12 -36 0 -13 -11 -73 -26 -134 -14 -61
-23 -117 -20 -124 9 -23 46 -16 54 9 18 49 55 265 49 280 -7 20 -28 22 -45 5z"/>
<path d="M6126 2059 c8 -93 12 -100 42 -81 9 6 6 23 -13 72 -14 34 -27 65 -30
68 -3 3 -2 -24 1 -59z"/>
<path d="M5762 2122 c-8 -6 -11 -22 -8 -48 3 -21 10 -77 16 -124 19 -151 19
-150 41 -150 11 0 22 7 26 16 8 22 -26 285 -39 301 -12 15 -18 16 -36 5z"/>
</g>
</svg>
